<mxfile host="app.diagrams.net" agent="Mozilla/5.0 (Windows NT 10.0; Win64; x64) AppleWebKit/537.36 (KHTML, like Gecko) Chrome/134.0.0.0 Safari/537.36" version="26.1.3">
  <diagram id="23iRSUPoRavnBvh4doch" name="Page-1">
    <mxGraphModel dx="1450" dy="957" grid="1" gridSize="10" guides="1" tooltips="1" connect="1" arrows="1" fold="1" page="0" pageScale="1" pageWidth="827" pageHeight="1169" math="0" shadow="0">
      <root>
        <mxCell id="0" />
        <mxCell id="1" parent="0" />
        <mxCell id="HOf0yWg0-uzV9OOMMQrS-24" value="" style="edgeStyle=orthogonalEdgeStyle;rounded=0;orthogonalLoop=1;jettySize=auto;html=1;" edge="1" parent="1" source="HOf0yWg0-uzV9OOMMQrS-1" target="HOf0yWg0-uzV9OOMMQrS-8">
          <mxGeometry relative="1" as="geometry" />
        </mxCell>
        <mxCell id="HOf0yWg0-uzV9OOMMQrS-1" value="" style="shape=ellipse;html=1;fillColor=strokeColor;strokeWidth=2;verticalLabelPosition=bottom;verticalAlignment=top;perimeter=ellipsePerimeter;" vertex="1" parent="1">
          <mxGeometry x="140" y="-50" width="40" height="40" as="geometry" />
        </mxCell>
        <mxCell id="HOf0yWg0-uzV9OOMMQrS-2" value="Guest" style="text;html=1;align=center;verticalAlign=middle;whiteSpace=wrap;rounded=0;" vertex="1" parent="1">
          <mxGeometry x="130" y="-80" width="60" height="30" as="geometry" />
        </mxCell>
        <mxCell id="HOf0yWg0-uzV9OOMMQrS-17" value="" style="edgeStyle=orthogonalEdgeStyle;rounded=0;orthogonalLoop=1;jettySize=auto;html=1;" edge="1" parent="1" source="HOf0yWg0-uzV9OOMMQrS-5" target="HOf0yWg0-uzV9OOMMQrS-16">
          <mxGeometry relative="1" as="geometry" />
        </mxCell>
        <mxCell id="HOf0yWg0-uzV9OOMMQrS-5" value="Journals" style="rounded=1;whiteSpace=wrap;html=1;" vertex="1" parent="1">
          <mxGeometry x="100" y="90" width="120" height="60" as="geometry" />
        </mxCell>
        <mxCell id="HOf0yWg0-uzV9OOMMQrS-8" value="" style="shape=line;html=1;strokeWidth=6;strokeColor=#000000;" vertex="1" parent="1">
          <mxGeometry x="-80" y="40" width="480" height="10" as="geometry" />
        </mxCell>
        <mxCell id="HOf0yWg0-uzV9OOMMQrS-46" style="edgeStyle=orthogonalEdgeStyle;rounded=0;orthogonalLoop=1;jettySize=auto;html=1;entryX=0.5;entryY=0;entryDx=0;entryDy=0;" edge="1" parent="1" source="HOf0yWg0-uzV9OOMMQrS-13" target="HOf0yWg0-uzV9OOMMQrS-30">
          <mxGeometry relative="1" as="geometry" />
        </mxCell>
        <mxCell id="HOf0yWg0-uzV9OOMMQrS-13" value="Home&amp;nbsp;&amp;nbsp;" style="rounded=1;whiteSpace=wrap;html=1;" vertex="1" parent="1">
          <mxGeometry x="-40" y="90" width="120" height="60" as="geometry" />
        </mxCell>
        <mxCell id="HOf0yWg0-uzV9OOMMQrS-15" value="" style="edgeStyle=orthogonalEdgeStyle;rounded=0;orthogonalLoop=1;jettySize=auto;html=1;" edge="1" parent="1">
          <mxGeometry relative="1" as="geometry">
            <mxPoint x="19.5" y="50" as="sourcePoint" />
            <mxPoint x="19.5" y="90" as="targetPoint" />
            <Array as="points">
              <mxPoint x="19.5" y="71" />
              <mxPoint x="20.5" y="71" />
              <mxPoint x="20.5" y="70" />
              <mxPoint x="19.5" y="70" />
            </Array>
          </mxGeometry>
        </mxCell>
        <mxCell id="HOf0yWg0-uzV9OOMMQrS-16" value="View Article" style="rounded=1;whiteSpace=wrap;html=1;" vertex="1" parent="1">
          <mxGeometry x="100" y="190" width="120" height="60" as="geometry" />
        </mxCell>
        <mxCell id="HOf0yWg0-uzV9OOMMQrS-18" value="" style="edgeStyle=orthogonalEdgeStyle;rounded=0;orthogonalLoop=1;jettySize=auto;html=1;" edge="1" parent="1">
          <mxGeometry relative="1" as="geometry">
            <mxPoint x="159.5" y="50" as="sourcePoint" />
            <mxPoint x="159.5" y="90" as="targetPoint" />
            <Array as="points">
              <mxPoint x="159.5" y="71" />
              <mxPoint x="160.5" y="71" />
              <mxPoint x="160.5" y="70" />
              <mxPoint x="159.5" y="70" />
            </Array>
          </mxGeometry>
        </mxCell>
        <mxCell id="HOf0yWg0-uzV9OOMMQrS-48" value="" style="edgeStyle=orthogonalEdgeStyle;rounded=0;orthogonalLoop=1;jettySize=auto;html=1;" edge="1" parent="1" source="HOf0yWg0-uzV9OOMMQrS-23" target="HOf0yWg0-uzV9OOMMQrS-47">
          <mxGeometry relative="1" as="geometry" />
        </mxCell>
        <mxCell id="HOf0yWg0-uzV9OOMMQrS-23" value="Register / Login" style="rounded=1;whiteSpace=wrap;html=1;" vertex="1" parent="1">
          <mxGeometry x="240" y="90" width="120" height="90" as="geometry" />
        </mxCell>
        <mxCell id="HOf0yWg0-uzV9OOMMQrS-25" value="" style="edgeStyle=orthogonalEdgeStyle;rounded=0;orthogonalLoop=1;jettySize=auto;html=1;" edge="1" parent="1">
          <mxGeometry relative="1" as="geometry">
            <mxPoint x="299.5" y="50" as="sourcePoint" />
            <mxPoint x="299.5" y="90" as="targetPoint" />
            <Array as="points">
              <mxPoint x="299.5" y="71" />
              <mxPoint x="300.5" y="71" />
              <mxPoint x="300.5" y="70" />
              <mxPoint x="299.5" y="70" />
            </Array>
          </mxGeometry>
        </mxCell>
        <mxCell id="HOf0yWg0-uzV9OOMMQrS-34" value="" style="edgeStyle=orthogonalEdgeStyle;rounded=0;orthogonalLoop=1;jettySize=auto;html=1;" edge="1" parent="1" source="HOf0yWg0-uzV9OOMMQrS-30" target="HOf0yWg0-uzV9OOMMQrS-33">
          <mxGeometry relative="1" as="geometry" />
        </mxCell>
        <mxCell id="HOf0yWg0-uzV9OOMMQrS-30" value="Check&amp;nbsp;&lt;div&gt;Login&lt;/div&gt;" style="rhombus;whiteSpace=wrap;html=1;rounded=1;" vertex="1" parent="1">
          <mxGeometry x="-20" y="290" width="80" height="80" as="geometry" />
        </mxCell>
        <mxCell id="HOf0yWg0-uzV9OOMMQrS-33" value="Submit Article" style="whiteSpace=wrap;html=1;rounded=1;" vertex="1" parent="1">
          <mxGeometry x="-40" y="450" width="120" height="60" as="geometry" />
        </mxCell>
        <mxCell id="HOf0yWg0-uzV9OOMMQrS-35" value="No" style="text;html=1;align=center;verticalAlign=middle;resizable=0;points=[];autosize=1;strokeColor=none;fillColor=none;" vertex="1" parent="1">
          <mxGeometry x="60" y="300" width="40" height="30" as="geometry" />
        </mxCell>
        <mxCell id="HOf0yWg0-uzV9OOMMQrS-36" value="Yes" style="text;html=1;align=center;verticalAlign=middle;resizable=0;points=[];autosize=1;strokeColor=none;fillColor=none;" vertex="1" parent="1">
          <mxGeometry x="20" y="380" width="40" height="30" as="geometry" />
        </mxCell>
        <mxCell id="HOf0yWg0-uzV9OOMMQrS-38" value="" style="edgeStyle=orthogonalEdgeStyle;rounded=0;orthogonalLoop=1;jettySize=auto;html=1;" edge="1" parent="1">
          <mxGeometry relative="1" as="geometry">
            <mxPoint x="451.3397459621556" y="105" as="sourcePoint" />
            <mxPoint x="360" y="105" as="targetPoint" />
            <Array as="points">
              <mxPoint x="390" y="105" />
              <mxPoint x="390" y="105" />
            </Array>
          </mxGeometry>
        </mxCell>
        <mxCell id="HOf0yWg0-uzV9OOMMQrS-37" value="" style="shape=ellipse;html=1;fillColor=strokeColor;strokeWidth=2;verticalLabelPosition=bottom;verticalAlignment=top;perimeter=ellipsePerimeter;" vertex="1" parent="1">
          <mxGeometry x="450" y="96" width="20" height="20" as="geometry" />
        </mxCell>
        <mxCell id="HOf0yWg0-uzV9OOMMQrS-39" value="User" style="text;html=1;align=center;verticalAlign=middle;resizable=0;points=[];autosize=1;strokeColor=none;fillColor=none;" vertex="1" parent="1">
          <mxGeometry x="468" y="91" width="50" height="30" as="geometry" />
        </mxCell>
        <mxCell id="HOf0yWg0-uzV9OOMMQrS-40" style="edgeStyle=orthogonalEdgeStyle;rounded=0;orthogonalLoop=1;jettySize=auto;html=1;entryX=0.167;entryY=1;entryDx=0;entryDy=0;entryPerimeter=0;exitX=1;exitY=0.5;exitDx=0;exitDy=0;" edge="1" parent="1" source="HOf0yWg0-uzV9OOMMQrS-30">
          <mxGeometry relative="1" as="geometry">
            <mxPoint x="70" y="330" as="sourcePoint" />
            <mxPoint x="270.03999999999996" y="180" as="targetPoint" />
            <Array as="points">
              <mxPoint x="270" y="330" />
            </Array>
          </mxGeometry>
        </mxCell>
        <mxCell id="HOf0yWg0-uzV9OOMMQrS-43" value="" style="edgeStyle=orthogonalEdgeStyle;rounded=0;orthogonalLoop=1;jettySize=auto;html=1;" edge="1" parent="1">
          <mxGeometry relative="1" as="geometry">
            <mxPoint x="450" y="134" as="sourcePoint" />
            <mxPoint x="360" y="134" as="targetPoint" />
            <Array as="points">
              <mxPoint x="380" y="134" />
              <mxPoint x="380" y="134" />
            </Array>
          </mxGeometry>
        </mxCell>
        <mxCell id="HOf0yWg0-uzV9OOMMQrS-42" value="" style="shape=ellipse;html=1;fillColor=strokeColor;strokeWidth=2;verticalLabelPosition=bottom;verticalAlignment=top;perimeter=ellipsePerimeter;" vertex="1" parent="1">
          <mxGeometry x="450" y="125" width="20" height="20" as="geometry" />
        </mxCell>
        <mxCell id="HOf0yWg0-uzV9OOMMQrS-44" value="Reviewer" style="text;html=1;align=center;verticalAlign=middle;resizable=0;points=[];autosize=1;strokeColor=none;fillColor=none;" vertex="1" parent="1">
          <mxGeometry x="470" y="121" width="70" height="30" as="geometry" />
        </mxCell>
        <mxCell id="HOf0yWg0-uzV9OOMMQrS-50" value="" style="edgeStyle=orthogonalEdgeStyle;rounded=0;orthogonalLoop=1;jettySize=auto;html=1;" edge="1" parent="1" source="HOf0yWg0-uzV9OOMMQrS-47" target="HOf0yWg0-uzV9OOMMQrS-49">
          <mxGeometry relative="1" as="geometry">
            <Array as="points">
              <mxPoint x="420" y="480" />
              <mxPoint x="420" y="440" />
            </Array>
          </mxGeometry>
        </mxCell>
        <mxCell id="HOf0yWg0-uzV9OOMMQrS-56" style="edgeStyle=orthogonalEdgeStyle;rounded=0;orthogonalLoop=1;jettySize=auto;html=1;entryX=1;entryY=0.5;entryDx=0;entryDy=0;" edge="1" parent="1" source="HOf0yWg0-uzV9OOMMQrS-47" target="HOf0yWg0-uzV9OOMMQrS-33">
          <mxGeometry relative="1" as="geometry" />
        </mxCell>
        <mxCell id="HOf0yWg0-uzV9OOMMQrS-62" value="" style="edgeStyle=orthogonalEdgeStyle;rounded=0;orthogonalLoop=1;jettySize=auto;html=1;" edge="1" parent="1" source="HOf0yWg0-uzV9OOMMQrS-47" target="HOf0yWg0-uzV9OOMMQrS-61">
          <mxGeometry relative="1" as="geometry" />
        </mxCell>
        <mxCell id="HOf0yWg0-uzV9OOMMQrS-47" value="Logged&lt;div&gt;In&lt;/div&gt;" style="rhombus;whiteSpace=wrap;html=1;rounded=1;" vertex="1" parent="1">
          <mxGeometry x="260" y="440" width="80" height="80" as="geometry" />
        </mxCell>
        <mxCell id="HOf0yWg0-uzV9OOMMQrS-49" value="Publish Journal" style="whiteSpace=wrap;html=1;rounded=1;" vertex="1" parent="1">
          <mxGeometry x="510" y="410" width="120" height="60" as="geometry" />
        </mxCell>
        <mxCell id="HOf0yWg0-uzV9OOMMQrS-51" value="Reviewer" style="text;html=1;align=center;verticalAlign=middle;resizable=0;points=[];autosize=1;strokeColor=none;fillColor=none;" vertex="1" parent="1">
          <mxGeometry x="300" y="520" width="70" height="30" as="geometry" />
        </mxCell>
        <mxCell id="HOf0yWg0-uzV9OOMMQrS-54" value="User" style="text;html=1;align=center;verticalAlign=middle;resizable=0;points=[];autosize=1;strokeColor=none;fillColor=none;" vertex="1" parent="1">
          <mxGeometry x="206" y="450" width="50" height="30" as="geometry" />
        </mxCell>
        <mxCell id="HOf0yWg0-uzV9OOMMQrS-58" value="" style="shape=ellipse;html=1;fillColor=strokeColor;strokeWidth=2;verticalLabelPosition=bottom;verticalAlignment=top;perimeter=ellipsePerimeter;" vertex="1" parent="1">
          <mxGeometry x="450" y="154" width="20" height="20" as="geometry" />
        </mxCell>
        <mxCell id="HOf0yWg0-uzV9OOMMQrS-59" value="" style="edgeStyle=orthogonalEdgeStyle;rounded=0;orthogonalLoop=1;jettySize=auto;html=1;" edge="1" parent="1">
          <mxGeometry relative="1" as="geometry">
            <mxPoint x="450" y="163" as="sourcePoint" />
            <mxPoint x="360" y="163" as="targetPoint" />
            <Array as="points">
              <mxPoint x="380" y="163" />
              <mxPoint x="380" y="163" />
            </Array>
          </mxGeometry>
        </mxCell>
        <mxCell id="HOf0yWg0-uzV9OOMMQrS-60" value="Admin" style="text;html=1;align=center;verticalAlign=middle;resizable=0;points=[];autosize=1;strokeColor=none;fillColor=none;" vertex="1" parent="1">
          <mxGeometry x="468" y="150" width="60" height="30" as="geometry" />
        </mxCell>
        <mxCell id="HOf0yWg0-uzV9OOMMQrS-69" value="" style="edgeStyle=orthogonalEdgeStyle;rounded=0;orthogonalLoop=1;jettySize=auto;html=1;" edge="1" parent="1" source="HOf0yWg0-uzV9OOMMQrS-61" target="HOf0yWg0-uzV9OOMMQrS-68">
          <mxGeometry relative="1" as="geometry" />
        </mxCell>
        <mxCell id="HOf0yWg0-uzV9OOMMQrS-61" value="Review Submitted&amp;nbsp;&lt;div&gt;Article&lt;/div&gt;" style="whiteSpace=wrap;html=1;rounded=1;" vertex="1" parent="1">
          <mxGeometry x="240" y="570" width="120" height="60" as="geometry" />
        </mxCell>
        <mxCell id="HOf0yWg0-uzV9OOMMQrS-63" value="Admin" style="text;html=1;align=center;verticalAlign=middle;resizable=0;points=[];autosize=1;strokeColor=none;fillColor=none;" vertex="1" parent="1">
          <mxGeometry x="340" y="450" width="60" height="30" as="geometry" />
        </mxCell>
        <mxCell id="HOf0yWg0-uzV9OOMMQrS-65" value="Add Reviewer to&amp;nbsp;&lt;div&gt;the Journal&lt;/div&gt;" style="whiteSpace=wrap;html=1;rounded=1;" vertex="1" parent="1">
          <mxGeometry x="510" y="500" width="120" height="60" as="geometry" />
        </mxCell>
        <mxCell id="HOf0yWg0-uzV9OOMMQrS-66" style="edgeStyle=orthogonalEdgeStyle;rounded=0;orthogonalLoop=1;jettySize=auto;html=1;startArrow=classic;startFill=1;endArrow=none;" edge="1" parent="1" source="HOf0yWg0-uzV9OOMMQrS-65">
          <mxGeometry relative="1" as="geometry">
            <mxPoint x="420" y="480" as="targetPoint" />
            <Array as="points">
              <mxPoint x="420" y="530" />
            </Array>
          </mxGeometry>
        </mxCell>
        <mxCell id="HOf0yWg0-uzV9OOMMQrS-68" value="Publish Submitted&lt;div&gt;Article to the&amp;nbsp;&lt;/div&gt;&lt;div&gt;Journal&lt;/div&gt;" style="whiteSpace=wrap;html=1;rounded=1;" vertex="1" parent="1">
          <mxGeometry x="240" y="670" width="120" height="60" as="geometry" />
        </mxCell>
      </root>
    </mxGraphModel>
  </diagram>
</mxfile>
